# AST/ASF file generated using VICON BodyLanguage
# -----------------------------------------------
:version 1.10
:name VICON
:units
  mass 1.0
  length 0.45
  angle deg
:documentation
   .ast/.asf automatically generated from VICON data using
   VICON BodyBuilder and BodyLanguage model FoxedUp or BRILLIANT.MOD
:root
   order TX TY TZ RX RY RZ
   axis XYZ
   position 0 0 0  
   orientation 0 0 0 
:bonedata
  begin
     id 1 
     name lhipjoint
     direction 0.535335 -0.74333 0.401095 
     length 2.04549 
     axis 0 0 0  XYZ
  end
  begin
     id 2 
     name lfemur
     direction 0.34202 -0.939693 0  
     length 6.95643  
     axis 0 0 20  XYZ
    dof rx ry rz
    limits (-160.0 20.0)
           (-70.0 70.0)
           (-60.0 70.0)
  end
  begin
     id 3 
     name ltibia
     direction 0.34192 -0.939729 0   
     length 5.55969   
     axis 0 0 20   XYZ
    dof rx
    limits (-10.0 170.0)
  end
  begin
     id 4 
     name lfoot
     direction 0.216943 -0.596046 0.773088   
     length 2.27918   
     axis -90 7.62852e-016 20   XYZ
    dof rx rz
    limits (-45.0 90.0)
           (-70.0 20.0)
  end
  begin
     id 5 
     name ltoes
     direction 1.53519e-011 -4.21748e-011 1   
     length 1.05562   
     axis -90 7.62852e-016 20   XYZ
    dof rx
    limits (-90.0 20.0)
  end
  begin
     id 6 
     name rhipjoint
     direction -0.576368 -0.719173 0.38806   
     length 2.1142  
     axis 0 0 0  XYZ 
  end
  begin
     id 7 
     name rfemur
     direction -0.34202 -0.939693 0   
     length 7.07928   
     axis 0 0 -20   XYZ
    dof rx ry rz
    limits (-160.0 20.0)
           (-70.0 70.0)
           (-70.0 60.0)
  end
  begin
     id 8 
     name rtibia
     direction -0.34202 -0.939693 0   
     length 5.79974   
     axis 0 0 -20   XYZ
    dof rx
    limits (-10.0 170.0)
 end
 begin
     id 9 
     name rfoot
     direction -0.189288 -0.520065 0.832888   
     length 2.42173  
     axis -90 -7.62852e-016 -20   XYZ
    dof rx rz
    limits (-45.0 90.0)
           (-20.0 70.0)
  end
  begin
     id 10 
     name rtoes
     direction -1.53574e-011 -4.21658e-011 1   
     length 1.14469   
     axis -90 -7.62852e-016 -20   XYZ
    dof rx
    limits (-90.0 20.0)
  end
  begin
     id 11 
     name lowerback
     direction -0.00135702 0.993803 0.111144   
     length 1.91308   
     axis 0 0 0   XYZ
    dof rx ry rz
    limits (-20.0 45.0)
           (-30.0 30.0)
           (-30.0 30.0)
  end
  begin
     id 12 
     name upperback
     direction -0.0056745 0.999813 0.0184631   
     length 1.9212   
     axis 0 0 0   XYZ
    dof rx ry rz
    limits (-20.0 45.0)
           (-30.0 30.0)
           (-30.0 30.0)
  end
  begin
     id 13 
     name thorax
     direction -0.00733434 0.999426 -0.0330788   
     length 1.94196   
     axis 0 0 0   XYZ
    dof rx ry rz
    limits (-20.0 45.0)
           (-30.0 30.0)
           (-30.0 30.0)
  end
  begin
     id 14 
     name lowerneck
     direction 0.0563074 0.996944 -0.0541571   
     length 2.34257   
     axis 0 0 0   XYZ
    dof rx ry rz
    limits (-20.0 45.0)
           (-30.0 30.0)
           (-30.0 30.0)
  end
  begin
     id 15 
     name upperneck
     direction -0.0544519 0.976166 -0.210085   
     length 2.32506   
     axis 0 0 0   XYZ
    dof rx ry rz
    limits (-20.0 45.0)
           (-30.0 30.0)
           (-30.0 30.0)
  end
  begin
     id 16
     name head
     direction -0.0226035 0.997615 -0.0652205  
     length 2.3648  
     axis 0 0 0   XYZ
    dof rx ry rz
    limits (-20.0 45.0)
           (-30.0 30.0)
           (-30.0 30.0)
  end
  begin
     id 17 
     name lclavicle
     direction 0.92109 0.381297 -0.0787716  
     length 4.0487  
     axis 0 0 0   XYZ
    dof ry rz
    limits (-20.0 10.0)
           (0.0 20.0)
  end
  begin
     id 18 
     name lhumerus
     direction 1 -4.48986e-011 3.56724e-027   
     length 4.94991   
     axis 180 -30 -90   XYZ
    dof rx ry rz
    limits (-60.0 90.0)
           (-90.0 90.0)
           (-90.0 90.0)
  end
  begin
     id 19
     name lradius
     direction 1 -4.48981e-011 8.62147e-027   
     length 2.7606   
     axis 180 -30 -90   XYZ
    dof rx
    limits (-10.0 170.0)
  end
  begin
     id 20
     name lwrist
     direction 1 -4.48989e-011 1.59799e-026   
     length 1.3803   
     axis -1.17785e-014 90 90   XYZ
    dof ry
    limits (-180.0 0.0)
 end
  begin
     id 21 
     name lhand
     direction 1 -4.48896e-011 3.19599e-026   
     length 0.843936   
     axis -2.03931e-014 90 90   XYZ
    dof rx rz
    limits (-90.0 90.0)
           (-45.0 45.0)
  end
  begin
     id 22 
     name lfingers
     direction 1 -4.48887e-011 6.39197e-026   
     length 0.680403   
     axis -4.07862e-014 90 90   XYZ
    dof rx
    limits (0.0 90.0)
  end
  begin
     id 23
     name lthumb
     direction 0.707107 -6.348e-011 0.707107   
     length 0.976926   
     axis -90 45 2.85299e-015   XYZ
    dof rx rz
    limits (-45.0 45.0)
           (-45.0 45.0)
  end
  begin
     id 24 
     name rclavicle
     direction -0.951104 0.307692 -0.026953   
     length 4.21801  
     axis 0 0 0   XYZ 
    dof ry rz
    limits (-10.0 20.0)
           (-20.0 0.0)
  end
  begin
     id 25 
     name rhumerus
     direction -1 -4.4896e-011 -1.8171e-018  
     length 4.32982   
     axis 180 30 90   XYZ
    dof rx ry rz
    limits (-90.0 60.0)
           (-90.0 90.0)
           (-90.0 90.0)
  end
  begin
     id 26 
     name rradius
     direction -1 -4.48959e-011 8.25165e-027   
     length 3.20057   
     axis 180 30 90   XYZ
    dof rx
    limits (-10.0 170.0)
  end
  begin
     id 27 
     name rwrist
     direction -1 -4.48997e-011 1.59799e-026   
     length 1.60029   
     axis -1.17785e-014 -90 -90   XYZ
    dof ry
    limits (-180.0 0.0)
  end
  begin
     id 28
     name rhand
     direction -1 -4.49023e-011 3.19599e-026   
     length 0.960433   
     axis -2.03931e-014 -90 -90   XYZ
    dof rx rz
    limits (-90.0 90.0)
           (-45.0 45.0)
  end
  begin
     id 29
     name rfingers
     direction -1 -4.48802e-011 6.39197e-026   
     length 0.774326   
     axis -4.07862e-014 -90 -90   XYZ
    dof rx
    limits (0.0 90.0)
  end
  begin
     id 30
     name rthumb
     direction -0.707107 -6.34876e-011 0.707107   
     length 1.11178   
     axis -90 -45 -2.85299e-015   XYZ
    dof rx rz
    limits (-45.0 45.0)
           (-45.0 45.0)
  end
:hierarchy
  begin
    root lhipjoint rhipjoint lowerback
    lhipjoint lfemur
    lfemur ltibia
    ltibia lfoot
    lfoot ltoes
    rhipjoint rfemur
    rfemur rtibia
    rtibia rfoot
    rfoot rtoes
    lowerback upperback
    upperback thorax
    thorax lowerneck lclavicle rclavicle
    lowerneck upperneck
    upperneck head
    lclavicle lhumerus
    lhumerus lradius
    lradius lwrist
    lwrist lhand lthumb
    lhand lfingers
    rclavicle rhumerus
    rhumerus rradius
    rradius rwrist
    rwrist rhand rthumb
    rhand rfingers
end

#!OML:ASF C:\KaitlinTest1\Natural Motions\Nikki\Session 2\Nikki.ASF
:FULLY-SPECIFIED
:DEGREES
138
root -13.9925 16.6067 4.83121 39.1398 88.1634 21.4453
lowerback -0.247325 -1.40099 -0.710191
upperback -1.20582 -1.86988 -1.45085
thorax -1.12158 -0.929381 -1.07363
lowerneck -19.0464 -12.9762 -7.47998
upperneck 0.583099 35.4448 2.96796
head 159.498 66.0422 -44.572
rclavicle 1.59028e-015 2.18663e-014
rhumerus -43.886 15.5823 -79.8385
rradius 37.8538
rwrist -2.51128
rhand -43.2199 8.08421
rfingers 7.12502
rthumb -16.0701 -21.2694
lclavicle 1.59028e-015 2.18663e-014
lhumerus -42.8295 1.51863 59.0597
lradius 32.4602
lwrist -25.1944
lhand -37.0593 3.70073
lfingers 7.12502
lthumb -10.1319 33.4368
rfemur -26.7148 -10.9266 21.062
rtibia 25.2143
rfoot -12.5782 5.10815
rtoes -7.71285e-014
lfemur -26.6058 8.05232 -22.3743
ltibia 20.1537
lfoot -2.78246 -8.30294
ltoes -6.99722e-014
139
root -14.021 16.5975 4.83325 48.4571 87.6501 30.1484
lowerback 0.0406714 -1.37041 -1.3414
upperback -1.06419 -1.83474 -1.59094
thorax -1.12238 -0.905339 -0.85902
lowerneck -19.8035 -13.0916 -7.31695
upperneck 0.364207 35.293 2.86762
head 158.984 66.0704 -45.0351
rclavicle 1.59028e-015 1.35174e-014
rhumerus -44.7314 14.861 -78.5849
rradius 37.1803
rwrist -2.34494
rhand -43.4894 8.52648
rfingers 7.12502
rthumb -16.3296 -20.806
lclavicle 1.59028e-015 1.35174e-014
lhumerus -44.4436 1.80584 57.6777
lradius 32.2059
lwrist -25.1553
lhand -36.8232 3.66928
lfingers 7.12502
lthumb -9.90403 33.4163
rfemur -28.1772 -10.2195 20.5094
rtibia 26.3541
rfoot -12.7159 4.52028
rtoes 7.87187e-014
lfemur -27.734 7.65439 -22.9022
ltibia 20.6673
lfoot -2.69081 -7.76378
ltoes 8.26944e-014
140
root -14.0644 16.5789 4.83462 52.4469 87.3683 33.604
lowerback 0.629359 -1.37935 -1.67682
upperback -0.949782 -1.863 -1.7089
thorax -1.32887 -0.915338 -0.778309
lowerneck -20.5072 -13.1857 -7.03661
upperneck 0.181598 35.1828 2.83104
head 158.477 66.1419 -45.5282
rclavicle -1.66979e-014 -1.11319e-014
rhumerus -45.8435 14.2699 -77.5771
rradius 36.7815
rwrist -2.82373
rhand -43.7314 8.65669
rfingers 7.12502
rthumb -16.5626 -20.6565
lclavicle -1.66979e-014 -1.11319e-014
lhumerus -46.2002 1.89398 56.2355
lradius 31.959
lwrist -24.8019
lhand -36.5937 3.49276
lfingers 7.12502
lthumb -9.68261 33.2502
rfemur -29.497 -9.62 20.129
rtibia 27.5519
rfoot -12.9584 4.00651
rtoes -1.62208e-013
lfemur -28.8085 7.26109 -23.1852
ltibia 21.3251
lfoot -2.75156 -7.31392
ltoes -6.36111e-014
141
root -14.1016 16.5572 4.83612 54.3569 87.1022 34.9956
lowerback 1.16975 -1.34496 -1.92251
upperback -0.805411 -1.83388 -1.79478
thorax -1.47924 -0.897613 -0.717765
lowerneck -21.1864 -13.2875 -6.91303
upperneck -0.01292 35.0869 2.75987
head 158.262 66.0757 -45.758
rclavicle -2.98177e-015 0
rhumerus -47.0201 13.5328 -76.3928
rradius 36.2361
rwrist -2.84209
rhand -43.9495 8.61564
rfingers 7.12502
rthumb -16.7726 -20.6799
lclavicle -2.98177e-015 0
lhumerus -48.0091 1.12564 55.3476
lradius 31.7969
lwrist -23.6423
lhand -36.3831 3.90588
lfingers 7.12502
lthumb -9.4795 33.6727
rfemur -30.8869 -9.23356 19.9072
rtibia 28.7967
rfoot -13.2332 3.66285
rtoes -1.03368e-013
lfemur -29.9215 6.87284 -23.3754
ltibia 22.1097
lfoot -2.84682 -6.81418
ltoes -1.01778e-013
142
root -14.1446 16.5291 4.83702 54.7854 86.8159 34.8728
lowerback 1.71469 -1.28164 -2.18472
upperback -0.63939 -1.76848 -1.84015
thorax -1.60846 -0.861522 -0.608291
lowerneck -21.9523 -13.4596 -6.70148
upperneck -0.253633 34.7065 2.63444
head 157.296 66.2881 -46.5314
rclavicle -8.54774e-015 4.77083e-015
rhumerus -48.1595 12.7122 -75.1177
rradius 35.6155
rwrist -2.77904
rhand -44.07 8.47338
rfingers 7.12502
rthumb -16.8886 -20.8123
lclavicle -8.54774e-015 4.77083e-015
lhumerus -49.7847 1.42662 54.0716
lradius 31.4737
lwrist -23.3739
lhand -36.0737 3.8306
lfingers 7.12502
lthumb -9.1809 33.6107
rfemur -32.3861 -8.85056 19.7342
rtibia 30.0993
rfoot -13.5344 3.41848
rtoes -8.50798e-014
lfemur -31.2106 6.44518 -23.4937
ltibia 23.0875
lfoot -3.01736 -6.22887
ltoes 2.38542e-014
143
root -14.1671 16.5021 4.83206 54.1468 86.5576 33.6046
lowerback 1.86878 -1.24798 -2.25457
upperback -0.398668 -1.72319 -1.9695
thorax -1.45011 -0.839804 -0.702696
lowerneck -22.8197 -13.5675 -6.3418
upperneck -0.462062 34.6149 2.61321
head 156.743 66.336 -47.0988
rclavicle -3.37934e-015 3.10104e-014
rhumerus -49.3553 11.942 -74.0739
rradius 34.895
rwrist -2.3821
rhand -44.358 8.16109
rfingers 7.12502
rthumb -17.1658 -21.1007
lclavicle -3.37934e-015 3.10104e-014
lhumerus -51.7058 1.61557 52.8081
lradius 31.3002
lwrist -22.3355
lhand -36.0505 3.95067
lfingers 7.12502
lthumb -9.15851 33.7318
rfemur -33.865 -8.58188 19.6178
rtibia 31.3932
rfoot -13.9365 3.28668
rtoes -7.39479e-014
lfemur -32.599 6.31121 -23.6856
ltibia 24.3078
lfoot -3.48085 -5.82167
ltoes -3.33958e-014
144
root -14.2061 16.4673 4.83298 54.1729 86.3459 33.094
lowerback 2.36594 -1.20467 -2.43347
upperback -0.210281 -1.68197 -2.0433
thorax -1.53299 -0.816866 -0.670715
lowerneck -23.6053 -13.6712 -6.10317
upperneck -0.653355 34.6009 2.59063
head 156.629 66.1821 -47.2874
rclavicle -1.72943e-014 -6.36111e-015
rhumerus -50.6455 11.027 -72.8525
rradius 34.1124
rwrist -1.67445
rhand -44.6035 8.21848
rfingers 7.12502
rthumb -17.402 -21.0225
lclavicle -1.72943e-014 -6.36111e-015
lhumerus -53.632 1.95216 51.3575
lradius 30.8927
lwrist -22.2536
lhand -35.764 4.1478
lfingers 7.12502
lthumb -8.88211 33.9409
rfemur -35.4218 -8.34213 19.5524
rtibia 32.8033
rfoot -14.2989 3.15552
rtoes -9.78021e-014
lfemur -34.0418 6.10856 -23.7929
ltibia 25.7008
lfoot -3.93513 -5.46384
ltoes -5.40694e-014
145
root -14.245 16.4225 4.83193 54.274 86.2076 32.5607
lowerback 2.74189 -1.20308 -2.52765
upperback 0.0154468 -1.68852 -2.14794
thorax -1.51255 -0.81924 -0.719515
lowerneck -24.5862 -13.802 -5.60296
upperneck -0.859933 34.5077 2.58938
head 155.765 66.2751 -48.1311
rclavicle 8.34896e-015 1.03368e-014
rhumerus -51.9536 10.2407 -71.8378
rradius 33.3997
rwrist -1.19772
rhand -44.7233 8.10688
rfingers 7.12502
rthumb -17.5174 -21.1239
lclavicle 8.34896e-015 1.03368e-014
lhumerus -55.6124 2.30805 49.9647
lradius 30.6436
lwrist -21.5088
lhand -35.6612 4.37323
lfingers 7.12502
lthumb -8.78287 34.1705
rfemur -37.1339 -8.16246 19.5515
rtibia 34.3755
rfoot -14.7685 3.01535
rtoes 1.93219e-013
lfemur -35.6781 5.74582 -23.807
ltibia 27.2386
lfoot -4.40225 -4.96366
ltoes 1.35174e-013
146
root -14.2832 16.3701 4.8302 54.8362 85.9321 32.5297
lowerback 3.16982 -1.17906 -2.78956
upperback 0.212643 -1.67363 -2.25269
thorax -1.54567 -0.808619 -0.674263
lowerneck -25.4716 -13.8649 -5.30544
upperneck -1.0335 34.7213 2.61481
head 156.011 65.9198 -48.094
rclavicle -2.62396e-014 -6.36111e-015
rhumerus -53.3805 9.42606 -70.6863
rradius 32.7318
rwrist -0.531556
rhand -44.5843 8.05584
rfingers 7.12502
rthumb -17.3837 -21.1868
lclavicle -2.62396e-014 -6.36111e-015
lhumerus -57.797 2.68293 48.5538
lradius 30.4496
lwrist -20.8998
lhand -35.0229 4.46041
lfingers 7.12502
lthumb -8.16689 34.2826
rfemur -38.9178 -8.02908 19.4275
rtibia 36.1315
rfoot -15.3031 2.97299
rtoes -2.94201e-014
lfemur -37.3664 5.62047 -24.0343
ltibia 28.9363
lfoot -4.96946 -4.64286
ltoes -2.38542e-014
147
root -14.3239 16.3086 4.82738 58.1049 85.6264 35.3542
lowerback 3.75089 -1.1846 -3.19806
upperback 0.48241 -1.70816 -2.37774
thorax -1.58555 -0.82099 -0.563526
lowerneck -26.4547 -14.0295 -4.89839
upperneck -1.273 34.4448 2.55519
head 154.982 66.0697 -48.992
rclavicle 3.33958e-014 3.65764e-014
rhumerus -54.7828 8.53494 -69.4248
rradius 32.0364
rwrist -0.0527151
rhand -44.2601 8.18859
rfingers 7.12502
rthumb -17.0715 -21.0813
lclavicle 3.33958e-014 3.65764e-014
lhumerus -59.9837 3.12719 47.132
lradius 30.202
lwrist -20.4407
lhand -34.6548 4.37456
lfingers 7.12502
lthumb -7.81158 34.2103
rfemur -40.593 -7.98686 19.0799
rtibia 38.031
rfoot -15.9437 2.81016
rtoes 1.55847e-013
lfemur -38.9545 5.38285 -24.4438
ltibia 30.808
lfoot -5.70133 -4.3686
ltoes 5.88403e-014
148
root -14.3734 16.2376 4.82776 59.2053 85.387 35.9532
lowerback 4.43936 -1.13311 -3.50633
upperback 0.685044 -1.67534 -2.45167
thorax -1.75629 -0.799017 -0.4567
lowerneck -27.2233 -14.0887 -4.69742
upperneck -1.95803 33.4163 1.96194
head 153.261 66.5257 -50.2536
rclavicle 1.19271e-015 -1.27222e-014
rhumerus -56.3846 7.77983 -68.2861
rradius 31.2781
rwrist 0.217322
rhand -44.061 8.76697
rfingers 7.12502
rthumb -16.8799 -20.5194
lclavicle 1.19271e-015 -1.27222e-014
lhumerus -62.2717 3.52827 45.6542
lradius 30.123
lwrist -20.1559
lhand -34.2382 4.53041
lfingers 7.12502
lthumb -7.40944 34.3807
rfemur -42.3933 -7.75323 18.8929
rtibia 39.9672
rfoot -16.4748 2.54503
rtoes 1.21656e-013
lfemur -40.723 5.15806 -24.6318
ltibia 32.7368
lfoot -6.33312 -4.02649
ltoes 1.43125e-013
149
root -14.4276 16.1595 4.8268 59.467 85.2764 35.6051
lowerback 5.16768 -0.857205 -3.55259
upperback 0.74222 -1.34543 -2.27377
thorax -2.10533 -0.630325 -0.255232
lowerneck -27.8635 -14.4986 -5.1898
upperneck -2.19246 33.0122 1.64459
head 152.807 66.2214 -50.4281
rclavicle -1.70955e-014 -2.94201e-014
rhumerus -58.6715 7.3105 -66.8627
rradius 30.7809
rwrist 0.400477
rhand -43.973 8.52021
rfingers 7.12502
rthumb -16.7952 -20.7734
lclavicle -1.70955e-014 -2.94201e-014
lhumerus -64.3489 3.61615 45.0695
lradius 29.8289
lwrist -19.2937
lhand -33.9392 4.4688
lfingers 7.12502
lthumb -7.12089 34.329
rfemur -44.3615 -7.47047 18.8566
rtibia 41.9681
rfoot -17.0782 2.24151
rtoes -7.15625e-014
lfemur -42.6715 4.96972 -24.6853
ltibia 34.7291
lfoot -6.9541 -3.72866
ltoes 1.59028e-014
150
root -14.4475 16.0914 4.81657 58.7188 85.0307 34.1488
lowerback 5.20261 -0.769277 -3.66249
upperback 0.983178 -1.22274 -2.3076
thorax -1.87742 -0.57159 -0.23825
lowerneck -28.8087 -14.6354 -4.98682
upperneck -2.40784 32.9977 1.59333
head 152.557 66.0742 -50.7426
rclavicle 1.23246e-014 -7.95139e-016
rhumerus -60.284 6.20287 -65.2624
rradius 30.1651
rwrist 1.74646
rhand -43.8639 8.26168
rfingers 7.12502
rthumb -16.6902 -21.0408
lclavicle 1.23246e-014 -7.95139e-016
lhumerus -66.6669 4.27635 43.2801
lradius 29.5994
lwrist -19.5985
lhand -33.3633 4.37812
lfingers 7.12502
lthumb -6.56499 34.2564
rfemur -46.2683 -7.29149 18.7513
rtibia 43.9383
rfoot -17.8215 2.16382
rtoes 1.77316e-013
lfemur -44.4947 4.80136 -24.8249
ltibia 36.7706
lfoot -7.82053 -3.32324
ltoes 1.86062e-013
151
root -14.4939 16.0062 4.81359 59.9083 84.8879 34.9542
lowerback 5.85886 -0.712731 -3.87
upperback 1.22286 -1.17937 -2.31672
thorax -1.99373 -0.545972 -0.12729
lowerneck -29.635 -14.7955 -4.83867
upperneck -2.57324 33.0889 1.53898
head 152.542 65.6955 -50.8103
rclavicle -9.93923e-015 1.51076e-014
rhumerus -61.97 5.50389 -64.0102
rradius 29.2501
rwrist 2.66428
rhand -44.1471 8.09975
rfingers 7.12502
rthumb -16.9628 -21.1795
lclavicle -9.93923e-015 1.51076e-014
lhumerus -69.1037 4.65934 41.7455
lradius 29.532
lwrist -19.658
lhand -32.8836 4.54947
lfingers 7.12502
lthumb -6.10185 34.4416
rfemur -47.9736 -7.22854 18.6293
rtibia 45.9705
rfoot -18.4391 1.9604
rtoes -1.63799e-013
lfemur -46.1776 4.5338 -24.9554
ltibia 38.8158
lfoot -8.5439 -3.00861
ltoes -1.11319e-013
